<svg width="842" height="361" viewBox="0 0 842 361" fill="none" xmlns="http://www.w3.org/2000/svg">
<g filter="url(#filter0_d_98_44)">
<path d="M24.8 210C21.4667 210 18.6 208.933 16.2 206.8C13.8 204.533 12.6 201.867 12.6 198.8V81C12.6 77.9333 13.7333 75.3333 16 73.2C18.4 71.0667 21.3333 70 24.8 70H79C91.5333 70 101.467 73.5333 108.8 80.6C116.267 87.6667 120 97.1333 120 109C120 114.867 118.4 120.467 115.2 125.8C112.133 131 108 135 102.8 137.8V138.4C110 140.667 115.6 144.6 119.6 150.2C123.733 155.667 125.8 162 125.8 169.2C125.8 177.2 124 184.333 120.4 190.6C116.8 196.733 111.8 201.533 105.4 205C99 208.333 91.6667 210 83.4 210H24.8ZM78.6 129.8C83.4 129.8 87.4667 127.867 90.8 124C94.2667 120.133 96 115.4 96 109.8C96 103.8 94.4667 99.0667 91.4 95.6C88.3333 92.1333 84.0667 90.4 78.6 90.4H36.2V129.8H78.6ZM82.6 189.4C88.6 189.4 93.2667 187.667 96.6 184.2C100.067 180.6 101.8 175.733 101.8 169.6C101.8 163.333 100.133 158.533 96.8 155.2C93.4667 151.733 88.7333 150 82.6 150H36.2V189.4H82.6ZM232.989 194C232.989 199.733 231.189 204.133 227.589 207.2C224.122 210.267 218.789 211.8 211.589 211.8V199.4C212.789 197.933 214.322 195.933 216.189 193.4L214.989 192.6C210.989 198.6 206.056 203.333 200.189 206.8C194.456 210.133 187.922 211.8 180.589 211.8C173.656 211.8 167.389 210.267 161.789 207.2C156.322 204 152.056 199.667 148.989 194.2C145.922 188.6 144.389 182.267 144.389 175.2V122.6C144.389 117.533 146.189 113.867 149.789 111.6C153.522 109.333 159.256 108.2 166.989 108.2V173.8C166.989 179.533 168.656 184.067 171.989 187.4C175.322 190.6 180.256 192.2 186.789 192.2C193.856 192.2 199.589 190.067 203.989 185.8C208.389 181.533 210.589 176.2 210.589 169.8V122.6C210.589 117.533 212.389 113.867 215.989 111.6C219.722 109.333 225.389 108.2 232.989 108.2V194ZM297.308 211.8C285.174 211.8 275.174 209.467 267.308 204.8C259.574 200.133 255.708 193.933 255.708 186.2C255.708 179 260.774 175.2 270.908 174.8C272.108 181.2 275.041 186.067 279.708 189.4C284.374 192.6 290.041 194.2 296.708 194.2C303.908 194.2 309.508 193.267 313.508 191.4C317.508 189.4 319.508 186.467 319.508 182.6C319.508 178.867 317.774 175.933 314.308 173.8C310.974 171.533 304.508 169.267 294.908 167C285.441 164.867 277.974 162.6 272.508 160.2C267.041 157.8 262.908 154.733 260.108 151C257.441 147.267 256.108 142.333 256.108 136.2C256.108 127.933 259.641 121.2 266.708 116C273.908 110.8 283.508 108.2 295.508 108.2C307.108 108.2 316.841 110.333 324.708 114.6C332.574 118.867 336.508 124.533 336.508 131.6C336.508 135.067 335.174 137.667 332.508 139.4C329.974 141.133 326.041 142.067 320.708 142.2C318.574 130.867 310.508 125.2 296.508 125.2C291.041 125.2 286.441 126.2 282.708 128.2C279.108 130.2 277.308 132.8 277.308 136C277.308 139.333 278.908 141.933 282.108 143.8C285.441 145.533 290.974 147.2 298.708 148.8C313.374 151.867 324.041 156 330.708 161.2C337.374 166.4 340.708 173.533 340.708 182.6C340.708 191.533 336.841 198.667 329.108 204C321.374 209.2 310.774 211.8 297.308 211.8ZM409.773 211.8C398.84 211.8 388.84 209.6 379.773 205.2C370.84 200.8 363.773 194.867 358.573 187.4C353.373 179.933 350.773 171.733 350.773 162.8V117C350.773 108.067 353.307 99.8667 358.373 92.4C363.573 84.9333 370.64 79.0667 379.573 74.8C388.64 70.4 398.707 68.2 409.773 68.2C420.84 68.2 430.84 70.4 439.773 74.8C448.84 79.0667 455.907 84.9333 460.973 92.4C466.173 99.8667 468.773 108.067 468.773 117V162.8C468.773 171.733 466.173 179.933 460.973 187.4C455.773 194.867 448.64 200.8 439.573 205.2C430.64 209.6 420.707 211.8 409.773 211.8ZM409.773 190.8C420.44 190.8 428.907 188.2 435.173 183C441.573 177.8 444.773 170.933 444.773 162.4V117.4C444.773 108.867 441.573 102.067 435.173 97C428.907 91.8 420.44 89.2 409.773 89.2C399.107 89.2 390.573 91.8 384.173 97C377.907 102.067 374.773 108.867 374.773 117.4V162.4C374.773 170.933 377.907 177.8 384.173 183C390.573 188.2 399.107 190.8 409.773 190.8ZM489.358 126C489.358 114.133 496.491 108.2 510.758 108.2V120.4C509.158 122.133 507.624 124.2 506.158 126.6L507.358 127.4C511.224 121.533 516.291 116.867 522.558 113.4C528.958 109.933 535.958 108.2 543.558 108.2C550.491 108.2 556.558 109.733 561.758 112.8C566.958 115.733 570.958 119.867 573.758 125.2C576.691 130.533 578.158 136.467 578.158 143V197.4C578.158 202.467 576.291 206.133 572.558 208.4C568.824 210.667 563.224 211.8 555.758 211.8V146C555.758 140.533 554.091 136.133 550.758 132.8C547.558 129.333 542.824 127.6 536.558 127.6C529.624 127.6 523.758 129.8 518.958 134.2C514.158 138.467 511.758 143.733 511.758 150V197.4C511.758 202.467 509.891 206.133 506.158 208.4C502.558 210.667 496.958 211.8 489.358 211.8V126Z" fill="white"/>
</g>
<g filter="url(#filter1_d_98_44)">
<path d="M25.16 281.36C22.8133 281.36 20.7733 281.053 19.04 280.44C17.3067 279.827 15.9733 278.987 15.04 277.92C14.1333 276.853 13.68 275.627 13.68 274.24C13.68 272.08 15.04 271 17.76 271C17.8133 273.107 18.48 274.707 19.76 275.8C21.0667 276.893 22.8933 277.44 25.24 277.44C27.2933 277.44 28.88 277.093 30 276.4C31.12 275.707 31.68 274.707 31.68 273.4C31.68 272.573 31.4667 271.907 31.04 271.4C30.6133 270.867 29.8933 270.4 28.88 270C27.8667 269.573 26.4 269.147 24.48 268.72C21.92 268.16 19.8933 267.507 18.4 266.76C16.9333 266.013 15.8667 265.12 15.2 264.08C14.5333 263.04 14.2 261.747 14.2 260.2C14.2 258.707 14.64 257.387 15.52 256.24C16.4 255.093 17.64 254.213 19.24 253.6C20.84 252.96 22.6933 252.64 24.8 252.64C26.8 252.64 28.6 252.92 30.2 253.48C31.8 254.013 33.0533 254.773 33.96 255.76C34.8667 256.747 35.32 257.88 35.32 259.16C35.32 261 34.0267 261.96 31.44 262.04C31.2267 260.12 30.5867 258.72 29.52 257.84C28.48 256.96 26.9067 256.52 24.8 256.52C22.9333 256.52 21.4933 256.84 20.48 257.48C19.4667 258.12 18.96 259.027 18.96 260.2C18.96 261 19.1467 261.667 19.52 262.2C19.92 262.707 20.5733 263.16 21.48 263.56C22.3867 263.933 23.6933 264.307 25.4 264.68C28.12 265.293 30.28 265.987 31.88 266.76C33.48 267.507 34.6267 268.413 35.32 269.48C36.04 270.52 36.4 271.827 36.4 273.4C36.4 275.027 35.9333 276.44 35 277.64C34.0933 278.84 32.7867 279.76 31.08 280.4C29.4 281.04 27.4267 281.36 25.16 281.36ZM48.6556 281.36C46.949 281.36 45.4023 281.053 44.0156 280.44C42.6556 279.8 41.5756 278.933 40.7756 277.84C40.0023 276.747 39.6156 275.507 39.6156 274.12V268.2C39.6156 266.787 40.0023 265.507 40.7756 264.36C41.549 263.213 42.6156 262.307 43.9756 261.64C45.3623 260.973 46.9223 260.64 48.6556 260.64C50.389 260.64 51.9356 260.973 53.2956 261.64C54.6823 262.307 55.7623 263.213 56.5356 264.36C57.309 265.507 57.6956 266.787 57.6956 268.2V274.12C57.6956 275.507 57.2956 276.747 56.4956 277.84C55.7223 278.933 54.6423 279.8 53.2556 280.44C51.8956 281.053 50.3623 281.36 48.6556 281.36ZM48.6556 277.48C50.069 277.48 51.189 277.16 52.0156 276.52C52.8423 275.853 53.2556 274.96 53.2556 273.84V268.4C53.2556 267.227 52.8423 266.28 52.0156 265.56C51.189 264.84 50.069 264.48 48.6556 264.48C47.2423 264.48 46.1223 264.84 45.2956 265.56C44.469 266.28 44.0556 267.227 44.0556 268.4V273.84C44.0556 274.96 44.469 275.853 45.2956 276.52C46.1223 277.16 47.2423 277.48 48.6556 277.48ZM61.9478 264.4H58.7078C58.7078 263.227 58.8945 262.373 59.2678 261.84C59.6411 261.28 60.2011 261 60.9478 261H61.9478V259.08C61.9478 257.213 62.4945 255.68 63.5878 254.48C64.6811 253.253 66.2945 252.64 68.4278 252.64C69.7878 252.64 70.8278 252.933 71.5478 253.52C72.2678 254.107 72.6278 254.773 72.6278 255.52C72.6278 256.24 72.3878 256.827 71.9078 257.28C70.9478 256.773 70.0011 256.52 69.0678 256.52C68.1345 256.52 67.4545 256.747 67.0278 257.2C66.6278 257.627 66.4278 258.32 66.4278 259.28V261H71.5478C71.5478 262.2 71.3078 263.067 70.8278 263.6C70.3745 264.133 69.6278 264.4 68.5878 264.4H66.4278V278.48C66.4278 279.493 66.0545 280.227 65.3078 280.68C64.5878 281.133 63.4678 281.36 61.9478 281.36V264.4ZM83.5591 281.36C81.4791 281.36 79.9324 280.76 78.9191 279.56C77.9324 278.36 77.4391 276.813 77.4391 274.92V264.4H73.4391C73.4391 263.253 73.6657 262.4 74.1191 261.84C74.5724 261.28 75.1857 261 75.9591 261H77.4791V257.52C77.4791 256.507 77.8391 255.773 78.5591 255.32C79.3057 254.867 80.4124 254.64 81.8791 254.64V261H87.1991C87.1991 262.2 86.9591 263.067 86.4791 263.6C85.9991 264.133 85.2391 264.4 84.1991 264.4H81.9191V274.76C81.9191 275.72 82.1057 276.413 82.4791 276.84C82.8524 277.24 83.5057 277.44 84.4391 277.44C85.3724 277.44 86.2924 277.187 87.1991 276.68C87.4391 276.893 87.6124 277.16 87.7191 277.48C87.8524 277.8 87.9191 278.133 87.9191 278.48C87.9191 279.227 87.5324 279.893 86.7591 280.48C85.9857 281.067 84.9191 281.36 83.5591 281.36ZM98.7338 281.36C97.6138 281.36 96.6804 281.133 95.9338 280.68C95.1871 280.2 94.7071 279.547 94.4938 278.72L89.6938 261.04C89.9071 260.933 90.2004 260.84 90.5738 260.76C90.9471 260.68 91.3204 260.64 91.6938 260.64C92.4138 260.64 93.0138 260.813 93.4938 261.16C94.0004 261.48 94.3204 261.907 94.4538 262.44L97.1338 274.04L96.6538 276.12L96.8938 276.2L100.774 262.12C100.907 261.667 101.147 261.307 101.494 261.04C101.867 260.773 102.347 260.64 102.934 260.64C103.494 260.64 103.96 260.787 104.334 261.08C104.734 261.347 105 261.693 105.134 262.12L108.294 274.28L107.734 276.4L108.014 276.48L111.374 262.44C111.507 261.907 111.814 261.48 112.294 261.16C112.8 260.813 113.414 260.64 114.134 260.64C114.507 260.64 114.88 260.68 115.254 260.76C115.627 260.84 115.92 260.933 116.134 261.04L111.374 278.72C111.134 279.547 110.6 280.2 109.774 280.68C108.974 281.133 108.014 281.36 106.894 281.36L102.574 264.88L102.374 264.92L102.814 266.6L98.7338 281.36ZM125.105 281.36C123.692 281.36 122.412 281.093 121.265 280.56C120.119 280.027 119.212 279.253 118.545 278.24C117.879 277.227 117.545 276.04 117.545 274.68C117.545 273.293 117.892 272.093 118.585 271.08C119.305 270.04 120.279 269.253 121.505 268.72C122.732 268.16 124.105 267.88 125.625 267.88C128.052 267.88 130.092 268.707 131.745 270.36L131.945 270.16C131.465 269.68 131.079 269.333 130.785 269.12V268C130.785 266.827 130.385 265.907 129.585 265.24C128.785 264.547 127.665 264.2 126.225 264.2C124.945 264.2 123.825 264.453 122.865 264.96C121.905 265.44 121.132 266.16 120.545 267.12C120.012 266.933 119.559 266.64 119.185 266.24C118.839 265.84 118.665 265.413 118.665 264.96C118.665 264.187 119.025 263.467 119.745 262.8C120.465 262.133 121.425 261.613 122.625 261.24C123.852 260.84 125.172 260.64 126.585 260.64C129.305 260.64 131.412 261.293 132.905 262.6C134.425 263.88 135.185 265.64 135.185 267.88V278.24C135.185 279.333 134.852 280.133 134.185 280.64C133.519 281.12 132.452 281.36 130.985 281.36V279.64C131.465 279.16 131.785 278.813 131.945 278.6L131.745 278.44C130.892 279.4 129.932 280.133 128.865 280.64C127.825 281.12 126.572 281.36 125.105 281.36ZM126.145 278C127.612 278 128.759 277.707 129.585 277.12C130.439 276.533 130.865 275.707 130.865 274.64C130.865 273.573 130.439 272.747 129.585 272.16C128.759 271.547 127.625 271.24 126.185 271.24C124.879 271.24 123.839 271.547 123.065 272.16C122.319 272.747 121.945 273.573 121.945 274.64C121.945 275.733 122.319 276.573 123.065 277.16C123.812 277.72 124.839 278 126.145 278ZM149.788 264.52C148.241 264.52 146.974 264.96 145.988 265.84C145.001 266.693 144.508 267.747 144.508 269V278.48C144.508 279.493 144.134 280.227 143.388 280.68C142.668 281.133 141.548 281.36 140.028 281.36V264.2C140.028 261.827 141.454 260.64 144.308 260.64V263.04C143.934 263.467 143.628 263.893 143.388 264.32L143.588 264.48C145.321 261.92 147.441 260.64 149.948 260.64C151.014 260.64 151.828 260.92 152.388 261.48C152.948 262.013 153.228 262.693 153.228 263.52C153.228 264.133 153.068 264.68 152.748 265.16C151.974 264.733 150.988 264.52 149.788 264.52ZM163.625 281.36C161.998 281.36 160.505 281.04 159.145 280.4C157.812 279.76 156.758 278.88 155.985 277.76C155.212 276.613 154.825 275.333 154.825 273.92V268.4C154.825 266.933 155.225 265.613 156.025 264.44C156.825 263.267 157.905 262.347 159.265 261.68C160.625 260.987 162.092 260.64 163.665 260.64C165.238 260.64 166.665 260.96 167.945 261.6C169.252 262.24 170.278 263.147 171.025 264.32C171.798 265.467 172.185 266.76 172.185 268.2V270.56C172.185 271.093 171.985 271.547 171.585 271.92C171.185 272.293 170.678 272.48 170.065 272.48H159.185V273.64C159.185 274.867 159.558 275.853 160.305 276.6C161.078 277.347 162.198 277.72 163.665 277.72C165.105 277.72 166.185 277.413 166.905 276.8C167.625 276.16 167.985 275.32 167.985 274.28C168.145 274.253 168.385 274.24 168.705 274.24C169.612 274.24 170.332 274.453 170.865 274.88C171.425 275.28 171.705 275.853 171.705 276.6C171.705 277.4 171.345 278.173 170.625 278.92C169.905 279.64 168.918 280.227 167.665 280.68C166.438 281.133 165.092 281.36 163.625 281.36ZM168.065 269.16V268.2C168.065 267 167.652 266.04 166.825 265.32C166.025 264.573 164.958 264.2 163.625 264.2C162.292 264.2 161.212 264.573 160.385 265.32C159.585 266.04 159.185 267 159.185 268.2V269.16H168.065ZM186.629 263.88C186.629 262.947 186.976 262.173 187.669 261.56C188.363 260.947 189.403 260.64 190.789 260.64V262.84C190.443 263.267 190.189 263.613 190.029 263.88L190.189 264.04C191.016 262.947 191.949 262.107 192.989 261.52C194.029 260.933 195.309 260.64 196.829 260.64C199.069 260.64 200.883 261.293 202.269 262.6C203.683 263.907 204.389 265.627 204.389 267.76V274.24C204.389 275.653 204.043 276.907 203.349 278C202.656 279.067 201.696 279.893 200.469 280.48C199.269 281.067 197.896 281.36 196.349 281.36C195.283 281.36 194.216 281.133 193.149 280.68C192.083 280.227 191.176 279.627 190.429 278.88L190.309 279.08C190.469 279.293 190.749 279.573 191.149 279.92V286.2C191.149 288.307 189.643 289.36 186.629 289.36V263.88ZM195.509 277.44C196.923 277.44 198.003 277.147 198.749 276.56C199.523 275.947 199.909 275.093 199.909 274V268.04C199.909 266.893 199.523 266.027 198.749 265.44C198.003 264.827 196.923 264.52 195.509 264.52C194.229 264.52 193.176 264.84 192.349 265.48C191.523 266.12 191.109 266.907 191.109 267.84V274.16C191.109 275.093 191.509 275.88 192.309 276.52C193.109 277.133 194.176 277.44 195.509 277.44ZM215.418 281.36C214.004 281.36 212.724 281.093 211.578 280.56C210.431 280.027 209.524 279.253 208.858 278.24C208.191 277.227 207.858 276.04 207.858 274.68C207.858 273.293 208.204 272.093 208.898 271.08C209.618 270.04 210.591 269.253 211.818 268.72C213.044 268.16 214.418 267.88 215.938 267.88C218.364 267.88 220.404 268.707 222.058 270.36L222.258 270.16C221.778 269.68 221.391 269.333 221.098 269.12V268C221.098 266.827 220.698 265.907 219.898 265.24C219.098 264.547 217.978 264.2 216.538 264.2C215.258 264.2 214.138 264.453 213.178 264.96C212.218 265.44 211.444 266.16 210.858 267.12C210.324 266.933 209.871 266.64 209.498 266.24C209.151 265.84 208.978 265.413 208.978 264.96C208.978 264.187 209.338 263.467 210.058 262.8C210.778 262.133 211.738 261.613 212.938 261.24C214.164 260.84 215.484 260.64 216.898 260.64C219.618 260.64 221.724 261.293 223.218 262.6C224.738 263.88 225.498 265.64 225.498 267.88V278.24C225.498 279.333 225.164 280.133 224.498 280.64C223.831 281.12 222.764 281.36 221.298 281.36V279.64C221.778 279.16 222.098 278.813 222.258 278.6L222.058 278.44C221.204 279.4 220.244 280.133 219.178 280.64C218.138 281.12 216.884 281.36 215.418 281.36ZM216.458 278C217.924 278 219.071 277.707 219.898 277.12C220.751 276.533 221.178 275.707 221.178 274.64C221.178 273.573 220.751 272.747 219.898 272.16C219.071 271.547 217.938 271.24 216.498 271.24C215.191 271.24 214.151 271.547 213.378 272.16C212.631 272.747 212.258 273.573 212.258 274.64C212.258 275.733 212.631 276.573 213.378 277.16C214.124 277.72 215.151 278 216.458 278ZM240.1 264.52C238.554 264.52 237.287 264.96 236.3 265.84C235.314 266.693 234.82 267.747 234.82 269V278.48C234.82 279.493 234.447 280.227 233.7 280.68C232.98 281.133 231.86 281.36 230.34 281.36V264.2C230.34 261.827 231.767 260.64 234.62 260.64V263.04C234.247 263.467 233.94 263.893 233.7 264.32L233.9 264.48C235.634 261.92 237.754 260.64 240.26 260.64C241.327 260.64 242.14 260.92 242.7 261.48C243.26 262.013 243.54 262.693 243.54 263.52C243.54 264.133 243.38 264.68 243.06 265.16C242.287 264.733 241.3 264.52 240.1 264.52ZM252.098 281.36C250.684 281.36 249.404 281.093 248.258 280.56C247.111 280.027 246.204 279.253 245.538 278.24C244.871 277.227 244.538 276.04 244.538 274.68C244.538 273.293 244.884 272.093 245.577 271.08C246.298 270.04 247.271 269.253 248.498 268.72C249.724 268.16 251.098 267.88 252.618 267.88C255.044 267.88 257.084 268.707 258.738 270.36L258.938 270.16C258.458 269.68 258.071 269.333 257.778 269.12V268C257.778 266.827 257.378 265.907 256.578 265.24C255.778 264.547 254.658 264.2 253.217 264.2C251.938 264.2 250.818 264.453 249.858 264.96C248.898 265.44 248.124 266.16 247.538 267.12C247.004 266.933 246.551 266.64 246.178 266.24C245.831 265.84 245.658 265.413 245.658 264.96C245.658 264.187 246.018 263.467 246.738 262.8C247.458 262.133 248.418 261.613 249.618 261.24C250.844 260.84 252.164 260.64 253.578 260.64C256.298 260.64 258.404 261.293 259.898 262.6C261.418 263.88 262.178 265.64 262.178 267.88V278.24C262.178 279.333 261.844 280.133 261.178 280.64C260.511 281.12 259.444 281.36 257.978 281.36V279.64C258.458 279.16 258.778 278.813 258.938 278.6L258.738 278.44C257.884 279.4 256.924 280.133 255.858 280.64C254.818 281.12 253.564 281.36 252.098 281.36ZM253.138 278C254.604 278 255.751 277.707 256.578 277.12C257.431 276.533 257.858 275.707 257.858 274.64C257.858 273.573 257.431 272.747 256.578 272.16C255.751 271.547 254.618 271.24 253.178 271.24C251.871 271.24 250.831 271.547 250.058 272.16C249.311 272.747 248.938 273.573 248.938 274.64C248.938 275.733 249.311 276.573 250.058 277.16C250.804 277.72 251.831 278 253.138 278ZM285.493 289.36C283.973 289.36 282.599 289.133 281.373 288.68C280.173 288.253 279.226 287.653 278.533 286.88C277.839 286.133 277.493 285.32 277.493 284.44C277.493 282.893 278.573 282.12 280.733 282.12C280.813 283.267 281.253 284.16 282.053 284.8C282.879 285.44 284.026 285.76 285.493 285.76C287.119 285.76 288.279 285.36 288.973 284.56C289.693 283.76 290.053 282.64 290.053 281.2V279.52C290.453 279.227 290.746 278.947 290.933 278.68L290.773 278.48C290.053 279.2 289.106 279.8 287.933 280.28C286.759 280.733 285.653 280.96 284.613 280.96C283.119 280.96 281.786 280.667 280.613 280.08C279.439 279.467 278.506 278.627 277.813 277.56C277.146 276.493 276.813 275.267 276.813 273.88V267.76C276.813 266.427 277.159 265.213 277.853 264.12C278.573 263.027 279.519 262.173 280.692 261.56C281.866 260.947 283.133 260.64 284.493 260.64C287.159 260.64 289.333 261.773 291.013 264.04L291.213 263.88C290.893 263.453 290.626 263.12 290.413 262.88C290.413 261.387 291.813 260.64 294.613 260.64V280.6C294.613 282.307 294.226 283.827 293.453 285.16C292.679 286.493 291.599 287.52 290.213 288.24C288.826 288.987 287.253 289.36 285.493 289.36ZM285.693 277.08C286.946 277.08 287.999 276.76 288.853 276.12C289.706 275.453 290.133 274.667 290.133 273.76V267.84C290.133 266.907 289.706 266.12 288.853 265.48C288.026 264.813 286.986 264.48 285.733 264.48C284.319 264.48 283.226 264.787 282.453 265.4C281.679 266.013 281.293 266.893 281.293 268.04V273.6C281.293 274.693 281.666 275.547 282.413 276.16C283.186 276.773 284.279 277.08 285.693 277.08ZM308 281.36C306.373 281.36 304.88 281.04 303.52 280.4C302.187 279.76 301.133 278.88 300.36 277.76C299.587 276.613 299.2 275.333 299.2 273.92V268.4C299.2 266.933 299.6 265.613 300.4 264.44C301.2 263.267 302.28 262.347 303.64 261.68C305 260.987 306.467 260.64 308.04 260.64C309.613 260.64 311.04 260.96 312.32 261.6C313.627 262.24 314.653 263.147 315.4 264.32C316.173 265.467 316.56 266.76 316.56 268.2V270.56C316.56 271.093 316.36 271.547 315.96 271.92C315.56 272.293 315.053 272.48 314.44 272.48H303.56V273.64C303.56 274.867 303.933 275.853 304.68 276.6C305.453 277.347 306.573 277.72 308.04 277.72C309.48 277.72 310.56 277.413 311.28 276.8C312 276.16 312.36 275.32 312.36 274.28C312.52 274.253 312.76 274.24 313.08 274.24C313.987 274.24 314.707 274.453 315.24 274.88C315.8 275.28 316.08 275.853 316.08 276.6C316.08 277.4 315.72 278.173 315 278.92C314.28 279.64 313.293 280.227 312.04 280.68C310.813 281.133 309.467 281.36 308 281.36ZM312.44 269.16V268.2C312.44 267 312.027 266.04 311.2 265.32C310.4 264.573 309.333 264.2 308 264.2C306.667 264.2 305.587 264.573 304.76 265.32C303.96 266.04 303.56 267 303.56 268.2V269.16H312.44ZM328.532 281.36C326.105 281.36 324.105 280.893 322.532 279.96C320.985 279.027 320.212 277.787 320.212 276.24C320.212 274.8 321.225 274.04 323.252 273.96C323.492 275.24 324.079 276.213 325.012 276.88C325.945 277.52 327.079 277.84 328.412 277.84C329.852 277.84 330.972 277.653 331.772 277.28C332.572 276.88 332.972 276.293 332.972 275.52C332.972 274.773 332.625 274.187 331.932 273.76C331.265 273.307 329.972 272.853 328.052 272.4C326.159 271.973 324.665 271.52 323.572 271.04C322.479 270.56 321.652 269.947 321.092 269.2C320.559 268.453 320.292 267.467 320.292 266.24C320.292 264.587 320.999 263.24 322.412 262.2C323.852 261.16 325.772 260.64 328.172 260.64C330.492 260.64 332.439 261.067 334.012 261.92C335.585 262.773 336.372 263.907 336.372 265.32C336.372 266.013 336.105 266.533 335.572 266.88C335.065 267.227 334.279 267.413 333.212 267.44C332.785 265.173 331.172 264.04 328.372 264.04C327.279 264.04 326.359 264.24 325.612 264.64C324.892 265.04 324.532 265.56 324.532 266.2C324.532 266.867 324.852 267.387 325.492 267.76C326.159 268.107 327.265 268.44 328.812 268.76C331.745 269.373 333.879 270.2 335.212 271.24C336.545 272.28 337.212 273.707 337.212 275.52C337.212 277.307 336.439 278.733 334.892 279.8C333.345 280.84 331.225 281.36 328.532 281.36ZM348.364 281.36C346.284 281.36 344.737 280.76 343.724 279.56C342.737 278.36 342.244 276.813 342.244 274.92V264.4H338.244C338.244 263.253 338.47 262.4 338.924 261.84C339.377 261.28 339.99 261 340.764 261H342.284V257.52C342.284 256.507 342.644 255.773 343.364 255.32C344.11 254.867 345.217 254.64 346.684 254.64V261H352.004C352.004 262.2 351.764 263.067 351.284 263.6C350.804 264.133 350.044 264.4 349.004 264.4H346.724V274.76C346.724 275.72 346.91 276.413 347.284 276.84C347.657 277.24 348.31 277.44 349.244 277.44C350.177 277.44 351.097 277.187 352.004 276.68C352.244 276.893 352.417 277.16 352.524 277.48C352.657 277.8 352.724 278.133 352.724 278.48C352.724 279.227 352.337 279.893 351.564 280.48C350.79 281.067 349.724 281.36 348.364 281.36ZM362.254 281.36C360.84 281.36 359.56 281.093 358.414 280.56C357.267 280.027 356.36 279.253 355.694 278.24C355.027 277.227 354.694 276.04 354.694 274.68C354.694 273.293 355.04 272.093 355.734 271.08C356.454 270.04 357.427 269.253 358.654 268.72C359.88 268.16 361.254 267.88 362.774 267.88C365.2 267.88 367.24 268.707 368.894 270.36L369.094 270.16C368.614 269.68 368.227 269.333 367.934 269.12V268C367.934 266.827 367.534 265.907 366.734 265.24C365.934 264.547 364.814 264.2 363.374 264.2C362.094 264.2 360.974 264.453 360.014 264.96C359.054 265.44 358.28 266.16 357.694 267.12C357.16 266.933 356.707 266.64 356.334 266.24C355.987 265.84 355.814 265.413 355.814 264.96C355.814 264.187 356.174 263.467 356.894 262.8C357.614 262.133 358.574 261.613 359.774 261.24C361 260.84 362.32 260.64 363.734 260.64C366.454 260.64 368.56 261.293 370.054 262.6C371.574 263.88 372.334 265.64 372.334 267.88V278.24C372.334 279.333 372 280.133 371.334 280.64C370.667 281.12 369.6 281.36 368.134 281.36V279.64C368.614 279.16 368.934 278.813 369.094 278.6L368.894 278.44C368.04 279.4 367.08 280.133 366.014 280.64C364.974 281.12 363.72 281.36 362.254 281.36ZM363.294 278C364.76 278 365.907 277.707 366.734 277.12C367.587 276.533 368.014 275.707 368.014 274.64C368.014 273.573 367.587 272.747 366.734 272.16C365.907 271.547 364.774 271.24 363.334 271.24C362.027 271.24 360.987 271.547 360.214 272.16C359.467 272.747 359.094 273.573 359.094 274.64C359.094 275.733 359.467 276.573 360.214 277.16C360.96 277.72 361.987 278 363.294 278ZM359.174 258.76C358.48 258.76 357.907 258.493 357.454 257.96C357.027 257.427 356.814 256.733 356.814 255.88C356.814 254.893 357.174 254.093 357.894 253.48C358.614 252.84 359.507 252.52 360.574 252.52C361.347 252.52 362.014 252.667 362.574 252.96C363.16 253.227 363.787 253.6 364.454 254.08C364.88 254.4 365.24 254.64 365.534 254.8C365.827 254.96 366.12 255.04 366.414 255.04C366.787 255.04 367.067 254.96 367.254 254.8C367.44 254.613 367.534 254.387 367.534 254.12C367.534 253.693 367.414 253.24 367.174 252.76C367.467 252.6 367.827 252.52 368.254 252.52C368.92 252.52 369.48 252.8 369.934 253.36C370.414 253.92 370.654 254.6 370.654 255.4C370.654 256.467 370.32 257.293 369.654 257.88C368.987 258.467 368.147 258.76 367.134 258.76C366.494 258.76 365.92 258.627 365.414 258.36C364.907 258.093 364.294 257.707 363.574 257.2C363.014 256.8 362.56 256.507 362.214 256.32C361.894 256.133 361.56 256.04 361.214 256.04C360.814 256.04 360.494 256.147 360.254 256.36C360.04 256.573 359.934 256.867 359.934 257.24C359.934 257.667 360.04 258.093 360.254 258.52C359.96 258.68 359.6 258.76 359.174 258.76ZM384.515 281.36C382.808 281.36 381.262 281.053 379.875 280.44C378.515 279.8 377.435 278.933 376.635 277.84C375.862 276.747 375.475 275.507 375.475 274.12V268.2C375.475 266.787 375.862 265.507 376.635 264.36C377.408 263.213 378.475 262.307 379.835 261.64C381.222 260.973 382.782 260.64 384.515 260.64C386.248 260.64 387.795 260.973 389.155 261.64C390.542 262.307 391.622 263.213 392.395 264.36C393.168 265.507 393.555 266.787 393.555 268.2V274.12C393.555 275.507 393.155 276.747 392.355 277.84C391.582 278.933 390.502 279.8 389.115 280.44C387.755 281.053 386.222 281.36 384.515 281.36ZM384.515 277.48C385.928 277.48 387.048 277.16 387.875 276.52C388.702 275.853 389.115 274.96 389.115 273.84V268.4C389.115 267.227 388.702 266.28 387.875 265.56C387.048 264.84 385.928 264.48 384.515 264.48C383.102 264.48 381.982 264.84 381.155 265.56C380.328 266.28 379.915 267.227 379.915 268.4V273.84C379.915 274.96 380.328 275.853 381.155 276.52C381.982 277.16 383.102 277.48 384.515 277.48ZM415.317 281.36C413.85 281.36 412.53 281.067 411.357 280.48C410.21 279.867 409.303 279.027 408.637 277.96C407.997 276.867 407.677 275.627 407.677 274.24V267.72C407.677 266.333 408.023 265.107 408.717 264.04C409.41 262.973 410.357 262.147 411.557 261.56C412.783 260.947 414.17 260.64 415.717 260.64C416.783 260.64 417.85 260.867 418.917 261.32C419.983 261.747 420.89 262.347 421.637 263.12L421.757 262.92C421.597 262.707 421.317 262.427 420.917 262.08V255.8C420.917 254.787 421.29 254.013 422.037 253.48C422.783 252.92 423.917 252.64 425.437 252.64V278.12C425.437 279.08 425.103 279.867 424.437 280.48C423.77 281.067 422.717 281.36 421.277 281.36V279.16C421.623 278.733 421.877 278.373 422.037 278.08L421.877 277.92C421.023 279.04 420.09 279.893 419.077 280.48C418.09 281.067 416.837 281.36 415.317 281.36ZM416.557 277.44C417.837 277.44 418.89 277.133 419.717 276.52C420.543 275.88 420.957 275.093 420.957 274.16V267.8C420.957 266.867 420.557 266.093 419.757 265.48C418.957 264.84 417.89 264.52 416.557 264.52C415.143 264.52 414.05 264.827 413.277 265.44C412.53 266.053 412.157 266.907 412.157 268V273.96C412.157 275.08 412.53 275.947 413.277 276.56C414.05 277.147 415.143 277.44 416.557 277.44ZM438.938 281.36C437.311 281.36 435.818 281.04 434.458 280.4C433.124 279.76 432.071 278.88 431.298 277.76C430.524 276.613 430.138 275.333 430.138 273.92V268.4C430.138 266.933 430.538 265.613 431.338 264.44C432.138 263.267 433.218 262.347 434.578 261.68C435.938 260.987 437.404 260.64 438.978 260.64C440.551 260.64 441.978 260.96 443.258 261.6C444.564 262.24 445.591 263.147 446.338 264.32C447.111 265.467 447.498 266.76 447.498 268.2V270.56C447.498 271.093 447.298 271.547 446.898 271.92C446.498 272.293 445.991 272.48 445.378 272.48H434.498V273.64C434.498 274.867 434.871 275.853 435.618 276.6C436.391 277.347 437.511 277.72 438.978 277.72C440.418 277.72 441.498 277.413 442.218 276.8C442.938 276.16 443.298 275.32 443.298 274.28C443.458 274.253 443.698 274.24 444.018 274.24C444.924 274.24 445.644 274.453 446.178 274.88C446.738 275.28 447.018 275.853 447.018 276.6C447.018 277.4 446.658 278.173 445.938 278.92C445.218 279.64 444.231 280.227 442.978 280.68C441.751 281.133 440.404 281.36 438.938 281.36ZM443.378 269.16V268.2C443.378 267 442.964 266.04 442.138 265.32C441.338 264.573 440.271 264.2 438.938 264.2C437.604 264.2 436.524 264.573 435.698 265.32C434.898 266.04 434.498 267 434.498 268.2V269.16H443.378ZM470.062 281.36C468.355 281.36 466.809 281.053 465.422 280.44C464.062 279.8 462.982 278.933 462.182 277.84C461.409 276.747 461.022 275.507 461.022 274.12V268.2C461.022 266.787 461.409 265.507 462.182 264.36C462.955 263.213 464.022 262.307 465.382 261.64C466.769 260.973 468.329 260.64 470.062 260.64C471.795 260.64 473.342 260.973 474.702 261.64C476.089 262.307 477.169 263.213 477.942 264.36C478.715 265.507 479.102 266.787 479.102 268.2V274.12C479.102 275.507 478.702 276.747 477.902 277.84C477.129 278.933 476.049 279.8 474.662 280.44C473.302 281.053 471.769 281.36 470.062 281.36ZM470.062 277.48C471.475 277.48 472.595 277.16 473.422 276.52C474.249 275.853 474.662 274.96 474.662 273.84V268.4C474.662 267.227 474.249 266.28 473.422 265.56C472.595 264.84 471.475 264.48 470.062 264.48C468.649 264.48 467.529 264.84 466.702 265.56C465.875 266.28 465.462 267.227 465.462 268.4V273.84C465.462 274.96 465.875 275.853 466.702 276.52C467.529 277.16 468.649 277.48 470.062 277.48ZM467.182 257.96C466.729 258.493 466.075 258.76 465.222 258.76C464.689 258.76 464.182 258.64 463.702 258.4C463.222 258.16 462.862 257.813 462.622 257.36L468.582 251.16C469.035 250.707 469.542 250.48 470.102 250.48C470.662 250.48 471.169 250.707 471.622 251.16L477.582 257.36C477.342 257.813 476.982 258.16 476.502 258.4C476.022 258.64 475.515 258.76 474.982 258.76C474.129 258.76 473.475 258.493 473.022 257.96L470.102 254.36L467.182 257.96ZM483.231 264.2C483.231 261.827 484.658 260.64 487.511 260.64V263.08C487.191 263.427 486.884 263.84 486.591 264.32L486.831 264.48C487.604 263.307 488.618 262.373 489.871 261.68C491.151 260.987 492.551 260.64 494.071 260.64C495.458 260.64 496.671 260.947 497.711 261.56C498.751 262.147 499.551 262.973 500.111 264.04C500.698 265.107 500.991 266.293 500.991 267.6V278.48C500.991 279.493 500.618 280.227 499.871 280.68C499.124 281.133 498.004 281.36 496.511 281.36V268.2C496.511 267.107 496.178 266.227 495.511 265.56C494.871 264.867 493.924 264.52 492.671 264.52C491.284 264.52 490.111 264.96 489.151 265.84C488.191 266.693 487.711 267.747 487.711 269V278.48C487.711 279.493 487.338 280.227 486.591 280.68C485.871 281.133 484.751 281.36 483.231 281.36V264.2ZM508.772 258.36C507.892 258.36 507.159 258.093 506.572 257.56C505.985 257 505.692 256.307 505.692 255.48C505.692 254.653 505.985 253.973 506.572 253.44C507.159 252.907 507.892 252.64 508.772 252.64C509.652 252.64 510.385 252.907 510.972 253.44C511.559 253.973 511.852 254.653 511.852 255.48C511.852 256.307 511.559 257 510.972 257.56C510.385 258.093 509.652 258.36 508.772 258.36ZM506.532 263.52C506.532 262.507 506.905 261.773 507.652 261.32C508.399 260.867 509.519 260.64 511.012 260.64V278.48C511.012 279.493 510.639 280.227 509.892 280.68C509.145 281.133 508.025 281.36 506.532 281.36V263.52ZM516.903 255.8C516.903 254.787 517.276 254.013 518.023 253.48C518.769 252.92 519.903 252.64 521.423 252.64V262.08C520.996 262.4 520.716 262.68 520.583 262.92L520.703 263.12C521.449 262.373 522.409 261.773 523.583 261.32C524.756 260.867 525.849 260.64 526.863 260.64C529.236 260.64 531.129 261.293 532.543 262.6C533.956 263.88 534.663 265.587 534.663 267.72V274.24C534.663 275.6 534.316 276.827 533.623 277.92C532.956 278.987 532.036 279.827 530.863 280.44C529.689 281.053 528.409 281.36 527.023 281.36C525.636 281.36 524.409 281.08 523.343 280.52C522.276 279.933 521.316 279.067 520.463 277.92L520.303 278.08C520.409 278.267 520.663 278.613 521.063 279.12C521.063 279.867 520.729 280.427 520.063 280.8C519.423 281.173 518.369 281.36 516.903 281.36V255.8ZM525.783 277.44C527.196 277.44 528.276 277.147 529.023 276.56C529.796 275.947 530.183 275.08 530.183 273.96V268C530.183 266.907 529.796 266.053 529.023 265.44C528.249 264.827 527.169 264.52 525.783 264.52C524.529 264.52 523.476 264.84 522.623 265.48C521.796 266.12 521.383 266.893 521.383 267.8V274.16C521.383 275.093 521.796 275.88 522.623 276.52C523.449 277.133 524.503 277.44 525.783 277.44ZM556.684 277.8C556.684 278.947 556.324 279.827 555.604 280.44C554.91 281.053 553.844 281.36 552.404 281.36V278.88C552.644 278.587 552.95 278.187 553.324 277.68L553.084 277.52C552.284 278.72 551.297 279.667 550.124 280.36C548.977 281.027 547.67 281.36 546.204 281.36C544.817 281.36 543.564 281.053 542.444 280.44C541.35 279.8 540.497 278.933 539.884 277.84C539.27 276.72 538.964 275.453 538.964 274.04V263.52C538.964 262.507 539.324 261.773 540.044 261.32C540.79 260.867 541.937 260.64 543.484 260.64V273.76C543.484 274.907 543.817 275.813 544.484 276.48C545.15 277.12 546.137 277.44 547.444 277.44C548.857 277.44 550.004 277.013 550.884 276.16C551.764 275.307 552.204 274.24 552.204 272.96V263.52C552.204 262.507 552.564 261.773 553.284 261.32C554.03 260.867 555.164 260.64 556.684 260.64V277.8ZM569.548 281.36C567.121 281.36 565.121 280.893 563.548 279.96C562.001 279.027 561.228 277.787 561.228 276.24C561.228 274.8 562.241 274.04 564.268 273.96C564.508 275.24 565.094 276.213 566.028 276.88C566.961 277.52 568.094 277.84 569.428 277.84C570.868 277.84 571.988 277.653 572.788 277.28C573.588 276.88 573.988 276.293 573.988 275.52C573.988 274.773 573.641 274.187 572.948 273.76C572.281 273.307 570.988 272.853 569.068 272.4C567.174 271.973 565.681 271.52 564.588 271.04C563.494 270.56 562.668 269.947 562.108 269.2C561.574 268.453 561.308 267.467 561.308 266.24C561.308 264.587 562.014 263.24 563.428 262.2C564.868 261.16 566.788 260.64 569.188 260.64C571.508 260.64 573.454 261.067 575.028 261.92C576.601 262.773 577.388 263.907 577.388 265.32C577.388 266.013 577.121 266.533 576.588 266.88C576.081 267.227 575.294 267.413 574.228 267.44C573.801 265.173 572.188 264.04 569.388 264.04C568.294 264.04 567.374 264.24 566.628 264.64C565.908 265.04 565.548 265.56 565.548 266.2C565.548 266.867 565.868 267.387 566.508 267.76C567.174 268.107 568.281 268.44 569.828 268.76C572.761 269.373 574.894 270.2 576.228 271.24C577.561 272.28 578.228 273.707 578.228 275.52C578.228 277.307 577.454 278.733 575.908 279.8C574.361 280.84 572.241 281.36 569.548 281.36ZM609.809 277.8C609.809 278.947 609.449 279.827 608.729 280.44C608.035 281.053 606.969 281.36 605.529 281.36V278.88C605.769 278.587 606.075 278.187 606.449 277.68L606.209 277.52C605.409 278.72 604.422 279.667 603.249 280.36C602.102 281.027 600.795 281.36 599.329 281.36C597.942 281.36 596.689 281.053 595.569 280.44C594.475 279.8 593.622 278.933 593.009 277.84C592.395 276.72 592.089 275.453 592.089 274.04V263.52C592.089 262.507 592.449 261.773 593.169 261.32C593.915 260.867 595.062 260.64 596.609 260.64V273.76C596.609 274.907 596.942 275.813 597.609 276.48C598.275 277.12 599.262 277.44 600.569 277.44C601.982 277.44 603.129 277.013 604.009 276.16C604.889 275.307 605.329 274.24 605.329 272.96V263.52C605.329 262.507 605.689 261.773 606.409 261.32C607.155 260.867 608.289 260.64 609.809 260.64V277.8ZM614.833 264.2C614.833 261.827 616.259 260.64 619.113 260.64V263.08C618.793 263.427 618.486 263.84 618.192 264.32L618.433 264.48C619.206 263.307 620.219 262.373 621.473 261.68C622.753 260.987 624.153 260.64 625.673 260.64C627.059 260.64 628.273 260.947 629.313 261.56C630.353 262.147 631.153 262.973 631.713 264.04C632.299 265.107 632.593 266.293 632.593 267.6V278.48C632.593 279.493 632.219 280.227 631.473 280.68C630.726 281.133 629.606 281.36 628.113 281.36V268.2C628.113 267.107 627.779 266.227 627.113 265.56C626.473 264.867 625.526 264.52 624.273 264.52C622.886 264.52 621.713 264.96 620.753 265.84C619.793 266.693 619.313 267.747 619.313 269V278.48C619.313 279.493 618.939 280.227 618.192 280.68C617.473 281.133 616.353 281.36 614.833 281.36V264.2ZM640.373 258.36C639.493 258.36 638.76 258.093 638.173 257.56C637.587 257 637.293 256.307 637.293 255.48C637.293 254.653 637.587 253.973 638.173 253.44C638.76 252.907 639.493 252.64 640.373 252.64C641.253 252.64 641.987 252.907 642.573 253.44C643.16 253.973 643.453 254.653 643.453 255.48C643.453 256.307 643.16 257 642.573 257.56C641.987 258.093 641.253 258.36 640.373 258.36ZM638.133 263.52C638.133 262.507 638.507 261.773 639.253 261.32C640 260.867 641.12 260.64 642.613 260.64V278.48C642.613 279.493 642.24 280.227 641.493 280.68C640.747 281.133 639.627 281.36 638.133 281.36V263.52ZM656.289 281.36C655.729 281.36 655.235 281.227 654.809 280.96C654.409 280.693 654.115 280.333 653.929 279.88L646.569 261C646.755 260.893 647.049 260.813 647.449 260.76C647.849 260.68 648.195 260.64 648.489 260.64C649.209 260.64 649.849 260.787 650.409 261.08C650.995 261.373 651.382 261.813 651.569 262.4L656.049 275.52L655.449 277.28L655.729 277.4L661.009 262.4C661.222 261.813 661.595 261.373 662.129 261.08C662.689 260.787 663.329 260.64 664.049 260.64C664.369 260.64 664.729 260.68 665.129 260.76C665.529 260.813 665.822 260.893 666.009 261L658.649 279.88C658.462 280.333 658.155 280.693 657.729 280.96C657.329 281.227 656.849 281.36 656.289 281.36ZM676.008 281.36C674.381 281.36 672.888 281.04 671.528 280.4C670.194 279.76 669.141 278.88 668.368 277.76C667.594 276.613 667.208 275.333 667.208 273.92V268.4C667.208 266.933 667.608 265.613 668.408 264.44C669.208 263.267 670.288 262.347 671.648 261.68C673.008 260.987 674.474 260.64 676.048 260.64C677.621 260.64 679.048 260.96 680.328 261.6C681.634 262.24 682.661 263.147 683.408 264.32C684.181 265.467 684.568 266.76 684.568 268.2V270.56C684.568 271.093 684.368 271.547 683.968 271.92C683.568 272.293 683.061 272.48 682.448 272.48H671.568V273.64C671.568 274.867 671.941 275.853 672.688 276.6C673.461 277.347 674.581 277.72 676.048 277.72C677.488 277.72 678.568 277.413 679.288 276.8C680.008 276.16 680.368 275.32 680.368 274.28C680.528 274.253 680.768 274.24 681.088 274.24C681.994 274.24 682.714 274.453 683.248 274.88C683.808 275.28 684.088 275.853 684.088 276.6C684.088 277.4 683.728 278.173 683.008 278.92C682.288 279.64 681.301 280.227 680.048 280.68C678.821 281.133 677.474 281.36 676.008 281.36ZM680.448 269.16V268.2C680.448 267 680.034 266.04 679.208 265.32C678.408 264.573 677.341 264.2 676.008 264.2C674.674 264.2 673.594 264.573 672.768 265.32C671.968 266.04 671.568 267 671.568 268.2V269.16H680.448ZM698.46 264.52C696.913 264.52 695.646 264.96 694.66 265.84C693.673 266.693 693.18 267.747 693.18 269V278.48C693.18 279.493 692.806 280.227 692.06 280.68C691.34 281.133 690.22 281.36 688.7 281.36V264.2C688.7 261.827 690.126 260.64 692.98 260.64V263.04C692.606 263.467 692.3 263.893 692.06 264.32L692.26 264.48C693.993 261.92 696.113 260.64 698.62 260.64C699.686 260.64 700.5 260.92 701.06 261.48C701.62 262.013 701.9 262.693 701.9 263.52C701.9 264.133 701.74 264.68 701.42 265.16C700.646 264.733 699.66 264.52 698.46 264.52ZM712.438 281.36C710.011 281.36 708.011 280.893 706.438 279.96C704.891 279.027 704.118 277.787 704.118 276.24C704.118 274.8 705.131 274.04 707.158 273.96C707.398 275.24 707.985 276.213 708.918 276.88C709.851 277.52 710.985 277.84 712.318 277.84C713.758 277.84 714.878 277.653 715.678 277.28C716.478 276.88 716.878 276.293 716.878 275.52C716.878 274.773 716.531 274.187 715.838 273.76C715.171 273.307 713.878 272.853 711.958 272.4C710.065 271.973 708.571 271.52 707.478 271.04C706.385 270.56 705.558 269.947 704.998 269.2C704.465 268.453 704.198 267.467 704.198 266.24C704.198 264.587 704.905 263.24 706.318 262.2C707.758 261.16 709.678 260.64 712.078 260.64C714.398 260.64 716.345 261.067 717.918 261.92C719.491 262.773 720.278 263.907 720.278 265.32C720.278 266.013 720.011 266.533 719.478 266.88C718.971 267.227 718.185 267.413 717.118 267.44C716.691 265.173 715.078 264.04 712.278 264.04C711.185 264.04 710.265 264.24 709.518 264.64C708.798 265.04 708.438 265.56 708.438 266.2C708.438 266.867 708.758 267.387 709.398 267.76C710.065 268.107 711.171 268.44 712.718 268.76C715.651 269.373 717.785 270.2 719.118 271.24C720.451 272.28 721.118 273.707 721.118 275.52C721.118 277.307 720.345 278.733 718.798 279.8C717.251 280.84 715.131 281.36 712.438 281.36ZM728.147 258.36C727.267 258.36 726.534 258.093 725.947 257.56C725.36 257 725.067 256.307 725.067 255.48C725.067 254.653 725.36 253.973 725.947 253.44C726.534 252.907 727.267 252.64 728.147 252.64C729.027 252.64 729.76 252.907 730.347 253.44C730.934 253.973 731.227 254.653 731.227 255.48C731.227 256.307 730.934 257 730.347 257.56C729.76 258.093 729.027 258.36 728.147 258.36ZM725.907 263.52C725.907 262.507 726.28 261.773 727.027 261.32C727.774 260.867 728.894 260.64 730.387 260.64V278.48C730.387 279.493 730.014 280.227 729.267 280.68C728.52 281.133 727.4 281.36 725.907 281.36V263.52ZM744.34 281.36C742.26 281.36 740.714 280.76 739.7 279.56C738.714 278.36 738.22 276.813 738.22 274.92V264.4H734.22C734.22 263.253 734.447 262.4 734.9 261.84C735.354 261.28 735.967 261 736.74 261H738.26V257.52C738.26 256.507 738.62 255.773 739.34 255.32C740.087 254.867 741.194 254.64 742.66 254.64V261H747.98C747.98 262.2 747.74 263.067 747.26 263.6C746.78 264.133 746.02 264.4 744.98 264.4H742.7V274.76C742.7 275.72 742.887 276.413 743.26 276.84C743.634 277.24 744.287 277.44 745.22 277.44C746.154 277.44 747.074 277.187 747.98 276.68C748.22 276.893 748.394 277.16 748.5 277.48C748.634 277.8 748.7 278.133 748.7 278.48C748.7 279.227 748.314 279.893 747.54 280.48C746.767 281.067 745.7 281.36 744.34 281.36ZM758.23 281.36C756.817 281.36 755.537 281.093 754.39 280.56C753.244 280.027 752.337 279.253 751.67 278.24C751.004 277.227 750.67 276.04 750.67 274.68C750.67 273.293 751.017 272.093 751.71 271.08C752.43 270.04 753.404 269.253 754.63 268.72C755.857 268.16 757.23 267.88 758.75 267.88C761.177 267.88 763.217 268.707 764.87 270.36L765.07 270.16C764.59 269.68 764.204 269.333 763.91 269.12V268C763.91 266.827 763.51 265.907 762.71 265.24C761.91 264.547 760.79 264.2 759.35 264.2C758.07 264.2 756.95 264.453 755.99 264.96C755.03 265.44 754.257 266.16 753.67 267.12C753.137 266.933 752.684 266.64 752.31 266.24C751.964 265.84 751.79 265.413 751.79 264.96C751.79 264.187 752.15 263.467 752.87 262.8C753.59 262.133 754.55 261.613 755.75 261.24C756.977 260.84 758.297 260.64 759.71 260.64C762.43 260.64 764.537 261.293 766.03 262.6C767.55 263.88 768.31 265.64 768.31 267.88V278.24C768.31 279.333 767.977 280.133 767.31 280.64C766.644 281.12 765.577 281.36 764.11 281.36V279.64C764.59 279.16 764.91 278.813 765.07 278.6L764.87 278.44C764.017 279.4 763.057 280.133 761.99 280.64C760.95 281.12 759.697 281.36 758.23 281.36ZM759.27 278C760.737 278 761.884 277.707 762.71 277.12C763.564 276.533 763.99 275.707 763.99 274.64C763.99 273.573 763.564 272.747 762.71 272.16C761.884 271.547 760.75 271.24 759.31 271.24C758.004 271.24 756.964 271.547 756.19 272.16C755.444 272.747 755.07 273.573 755.07 274.64C755.07 275.733 755.444 276.573 756.19 277.16C756.937 277.72 757.964 278 759.27 278ZM759.99 253C760.15 252.573 760.484 252.24 760.99 252C761.497 251.733 762.164 251.6 762.99 251.6H766.07L761.95 257.8C761.71 258.173 761.39 258.44 760.99 258.6C760.617 258.733 759.977 258.8 759.07 258.8C758.537 258.8 758.11 258.787 757.79 258.76L759.99 253ZM782.913 264.52C781.366 264.52 780.099 264.96 779.113 265.84C778.126 266.693 777.633 267.747 777.633 269V278.48C777.633 279.493 777.259 280.227 776.513 280.68C775.793 281.133 774.673 281.36 773.153 281.36V264.2C773.153 261.827 774.579 260.64 777.433 260.64V263.04C777.059 263.467 776.753 263.893 776.513 264.32L776.713 264.48C778.446 261.92 780.566 260.64 783.073 260.64C784.139 260.64 784.953 260.92 785.513 261.48C786.073 262.013 786.353 262.693 786.353 263.52C786.353 264.133 786.193 264.68 785.873 265.16C785.099 264.733 784.113 264.52 782.913 264.52ZM792.131 258.36C791.251 258.36 790.518 258.093 789.931 257.56C789.345 257 789.051 256.307 789.051 255.48C789.051 254.653 789.345 253.973 789.931 253.44C790.518 252.907 791.251 252.64 792.131 252.64C793.011 252.64 793.745 252.907 794.331 253.44C794.918 253.973 795.211 254.653 795.211 255.48C795.211 256.307 794.918 257 794.331 257.56C793.745 258.093 793.011 258.36 792.131 258.36ZM789.891 263.52C789.891 262.507 790.265 261.773 791.011 261.32C791.758 260.867 792.878 260.64 794.371 260.64V278.48C794.371 279.493 793.998 280.227 793.251 280.68C792.505 281.133 791.385 281.36 789.891 281.36V263.52ZM807.367 281.36C805.66 281.36 804.113 281.053 802.727 280.44C801.367 279.8 800.287 278.933 799.487 277.84C798.713 276.747 798.327 275.507 798.327 274.12V268.2C798.327 266.787 798.713 265.507 799.487 264.36C800.26 263.213 801.327 262.307 802.687 261.64C804.073 260.973 805.633 260.64 807.367 260.64C809.1 260.64 810.647 260.973 812.007 261.64C813.393 262.307 814.473 263.213 815.247 264.36C816.02 265.507 816.407 266.787 816.407 268.2V274.12C816.407 275.507 816.007 276.747 815.207 277.84C814.433 278.933 813.353 279.8 811.967 280.44C810.607 281.053 809.073 281.36 807.367 281.36ZM807.367 277.48C808.78 277.48 809.9 277.16 810.727 276.52C811.553 275.853 811.967 274.96 811.967 273.84V268.4C811.967 267.227 811.553 266.28 810.727 265.56C809.9 264.84 808.78 264.48 807.367 264.48C805.953 264.48 804.833 264.84 804.007 265.56C803.18 266.28 802.767 267.227 802.767 268.4V273.84C802.767 274.96 803.18 275.853 804.007 276.52C804.833 277.16 805.953 277.48 807.367 277.48Z" fill="white"/>
</g>
<g filter="url(#filter2_d_98_44)">
<path fill-rule="evenodd" clip-rule="evenodd" d="M614 81C610.686 81 608 83.6863 608 87C608 90.3137 610.686 93 614 93H775.516L785.407 146.014C786.805 153.508 791.421 160.011 798.035 163.802L817.79 175.127L818.354 182.422C818.982 190.554 812.552 197.5 804.395 197.5H802C798.686 197.5 796 200.186 796 203.5C796 206.814 798.686 209.5 802 209.5H804.395C819.544 209.5 831.485 196.601 830.318 181.497L829.51 171.038L824.408 104.997C823.362 91.4551 812.068 81 798.485 81H780.5H614ZM797.203 143.813L787.723 93H798.485C805.799 93 811.881 98.6297 812.444 105.922L816.672 160.654L804.003 153.391C800.442 151.35 797.956 147.848 797.203 143.813ZM693 121.363C693 116.468 696.968 112.5 701.863 112.5C706.337 112.5 710.109 115.834 710.658 120.275L718.267 181.781C719.3 190.131 712.787 197.5 704.373 197.5H693V121.363ZM614 197.5H681V121.363C681 109.841 690.341 100.5 701.863 100.5C712.394 100.5 721.275 108.349 722.568 118.801L730.177 180.308C732.095 195.815 719.999 209.5 704.373 209.5H687H614C610.686 209.5 608 206.814 608 203.5C608 200.186 610.686 197.5 614 197.5ZM614 110C610.686 110 608 112.686 608 116C608 119.314 610.686 122 614 122H647.5C654.68 122 660.5 127.82 660.5 135C660.5 142.182 654.683 148 647.505 148H647.443H647.382H647.32H647.259H647.197H647.135H647.073H647.012H646.95H646.888H646.826H646.764H646.702H646.639H646.577H646.515H646.453H646.39H646.328H646.265H646.203H646.14H646.077H646.015H645.952H645.889H645.826H645.764H645.701H645.638H645.575H645.512H645.448H645.385H645.322H645.259H645.196H645.132H645.069H645.005H644.942H644.878H644.815H644.751H644.687H644.624H644.56H644.496H644.432H644.368H644.304H644.24H644.176H644.112H644.048H643.984H643.92H643.856H643.791H643.727H643.663H643.598H643.534H643.469H643.405H643.34H643.276H643.211H643.146H643.081H643.017H642.952H642.887H642.822H642.757H642.692H642.627H642.562H642.497H642.432H642.367H642.302H642.237H642.171H642.106H642.041H641.975H641.91H641.844H641.779H641.713H641.648H641.582H641.517H641.451H641.385H641.32H641.254H641.188H641.122H641.057H640.991H640.925H640.859H640.793H640.727H640.661H640.595H640.529H640.463H640.397H640.33H640.264H640.198H640.132H640.065H639.999H639.933H639.866H639.8H639.734H639.667H639.601H639.534H639.468H639.401H639.334H639.268H639.201H639.135H639.068H639.001H638.934H638.868H638.801H638.734H638.667H638.6H638.533H638.467H638.4H638.333H638.266H638.199H638.132H638.065H637.998H637.931H637.863H637.796H637.729H637.662H637.595H637.528H637.46H637.393H637.326H637.259H637.191H637.124H637.057H636.989H636.922H636.855H636.787H636.72H636.652H636.585H636.517H636.45H636.382H636.315H636.247H636.18H636.112H636.045H635.977H635.909H635.842H635.774H635.707H635.639H635.571H635.504H635.436H635.368H635.3H635.233H635.165H635.097H635.029H634.962H634.894H634.826H634.758H634.69H634.623H634.555H634.487H634.419H634.351H634.283H634.215H634.148H634.08H634.012H633.944H633.876H633.808H633.74H633.672H633.604H633.536H633.468H633.4H633.332H633.264H633.196H633.128H633.06H632.992H632.924H632.856H632.788H632.72H632.652H632.584H632.516H632.448H632.38H632.312H632.244H632.176H632.108H632.04H631.972H631.904H631.836H631.768H631.7H631.632H631.564H631.496H631.428H631.36H631.292H631.224H631.156H631.088H631.02H630.952H630.884H630.816H630.748H630.68H630.612H630.544H630.476H630.408H630.34H630.272H630.204H630.136H630.068H630H629.932H629.864H629.796H629.729H629.661H629.593H629.525H629.457H629.389H629.321H629.253H629.186H629.118H629.05H628.982H628.914H628.846H628.779H628.711H628.643H628.575H628.508H628.44H628.372H628.304H628.237H628.169H628.101H628.034H627.966H627.898H627.831H627.763H627.696H627.628H627.56H627.493H627.425H627.358H627.29H627.223H627.155H627.088H627.02H626.953H626.886H626.818H626.751H626.684H626.616H626.549H626.482H626.414H626.347H626.28H626.213H626.145H626.078H626.011H625.944H625.877H625.81H625.743H625.675H625.608H625.541H625.474H625.407H625.34H625.274H625.207H625.14H625.073H625.006H624.939H624.872H624.806H624.739H624.672H624.606H624.539H624.472H624.406H624.339H624.272H624.206H624.139H624.073H624.006H623.94H623.874H623.807H623.741H623.675H623.608H623.542H623.476H623.41H623.343H623.277H623.211H623.145H623.079H623.013H622.947H622.881H622.815H622.749H622.683H622.617H622.552H622.486H622.42H622.354H622.289H622.223H622.157H622.092H622.026H621.961H621.895H621.83H621.764H621.699H621.634H621.568H621.503H621.438H621.373H621.308H621.242H621.177H621.112H621.047H620.982H620.917H620.853H620.788H620.723H620.658H620.593H620.529H620.464H620.399H620.335H620.27H620.206H620.141H620.077H620.013H619.948H619.884H619.82H619.755H619.691H619.627H619.563H619.499H619.435H619.371H619.307H619.243H619.179H619.116H619.052H618.988H618.925H618.861H618.797H618.734H618.67H618.607H618.544H618.48H618.417H618.354H618.291H618.228H618.165H618.101H618.038H617.976H617.913H617.85H617.787H617.724H617.662H617.599H617.536H617.474H617.411H617.349H617.287H617.224H617.162H617.1H617.037H616.975H616.913H616.851H616.789H616.727H616.665H616.604H616.542H616.48H616.419H616.357H616.295H616.234H616.173H616.111H616.05H615.989H615.927H615.866H615.805H615.744H615.683H615.622H615.561H615.501H615.44H615.379H615.319H615.258H615.197H615.137H615.077H615.016H614.956H614.896H614.836H614.776H614.716H614.656H614.596H614.536H614.476H614.416H614.357H614.297H614.237H614.178H614.119H614.059H614C610.686 148 608 150.686 608 154C608 157.314 610.686 160 614 160H614.059H614.119H614.178H614.237H614.297H614.357H614.416H614.476H614.536H614.596H614.656H614.716H614.776H614.836H614.896H614.956H615.016H615.077H615.137H615.197H615.258H615.319H615.379H615.44H615.501H615.561H615.622H615.683H615.744H615.805H615.866H615.927H615.989H616.05H616.111H616.173H616.234H616.295H616.357H616.419H616.48H616.542H616.604H616.665H616.727H616.789H616.851H616.913H616.975H617.037H617.1H617.162H617.224H617.287H617.349H617.411H617.474H617.536H617.599H617.662H617.724H617.787H617.85H617.913H617.976H618.038H618.101H618.165H618.228H618.291H618.354H618.417H618.48H618.544H618.607H618.67H618.734H618.797H618.861H618.925H618.988H619.052H619.116H619.179H619.243H619.307H619.371H619.435H619.499H619.563H619.627H619.691H619.755H619.82H619.884H619.948H620.013H620.077H620.141H620.206H620.27H620.335H620.399H620.464H620.529H620.593H620.658H620.723H620.788H620.853H620.917H620.982H621.047H621.112H621.177H621.242H621.308H621.373H621.438H621.503H621.568H621.634H621.699H621.764H621.83H621.895H621.961H622.026H622.092H622.157H622.223H622.289H622.354H622.42H622.486H622.552H622.617H622.683H622.749H622.815H622.881H622.947H623.013H623.079H623.145H623.211H623.277H623.343H623.41H623.476H623.542H623.608H623.675H623.741H623.807H623.874H623.94H624.006H624.073H624.139H624.206H624.272H624.339H624.406H624.472H624.539H624.606H624.672H624.739H624.806H624.872H624.939H625.006H625.073H625.14H625.207H625.274H625.34H625.407H625.474H625.541H625.608H625.675H625.743H625.81H625.877H625.944H626.011H626.078H626.145H626.213H626.28H626.347H626.414H626.482H626.549H626.616H626.684H626.751H626.818H626.886H626.953H627.02H627.088H627.155H627.223H627.29H627.358H627.425H627.493H627.56H627.628H627.696H627.763H627.831H627.898H627.966H628.034H628.101H628.169H628.237H628.304H628.372H628.44H628.508H628.575H628.643H628.711H628.779H628.846H628.914H628.982H629.05H629.118H629.186H629.253H629.321H629.389H629.457H629.525H629.593H629.661H629.729H629.796H629.864H629.932H630H630.068H630.136H630.204H630.272H630.34H630.408H630.476H630.544H630.612H630.68H630.748H630.816H630.884H630.952H631.02H631.088H631.156H631.224H631.292H631.36H631.428H631.496H631.564H631.632H631.7H631.768H631.836H631.904H631.972H632.04H632.108H632.176H632.244H632.312H632.38H632.448H632.516H632.584H632.652H632.72H632.788H632.856H632.924H632.992H633.06H633.128H633.196H633.264H633.332H633.4H633.468H633.536H633.604H633.672H633.74H633.808H633.876H633.944H634.012H634.08H634.148H634.215H634.283H634.351H634.419H634.487H634.555H634.623H634.69H634.758H634.826H634.894H634.962H635.029H635.097H635.165H635.233H635.3H635.368H635.436H635.504H635.571H635.639H635.707H635.774H635.842H635.909H635.977H636.045H636.112H636.18H636.247H636.315H636.382H636.45H636.517H636.585H636.652H636.72H636.787H636.855H636.922H636.989H637.057H637.124H637.191H637.259H637.326H637.393H637.46H637.528H637.595H637.662H637.729H637.796H637.863H637.931H637.998H638.065H638.132H638.199H638.266H638.333H638.4H638.467H638.533H638.6H638.667H638.734H638.801H638.868H638.934H639.001H639.068H639.135H639.201H639.268H639.334H639.401H639.468H639.534H639.601H639.667H639.734H639.8H639.866H639.933H639.999H640.065H640.132H640.198H640.264H640.33H640.397H640.463H640.529H640.595H640.661H640.727H640.793H640.859H640.925H640.991H641.057H641.122H641.188H641.254H641.32H641.385H641.451H641.517H641.582H641.648H641.713H641.779H641.844H641.91H641.975H642.041H642.106H642.171H642.237H642.302H642.367H642.432H642.497H642.562H642.627H642.692H642.757H642.822H642.887H642.952H643.017H643.081H643.146H643.211H643.276H643.34H643.405H643.469H643.534H643.598H643.663H643.727H643.791H643.856H643.92H643.984H644.048H644.112H644.176H644.24H644.304H644.368H644.432H644.496H644.56H644.624H644.687H644.751H644.815H644.878H644.942H645.005H645.069H645.132H645.196H645.259H645.322H645.385H645.448H645.512H645.575H645.638H645.701H645.764H645.826H645.889H645.952H646.015H646.077H646.14H646.203H646.265H646.328H646.39H646.453H646.515H646.577H646.639H646.702H646.764H646.826H646.888H646.95H647.012H647.073H647.135H647.197H647.259H647.32H647.382H647.443H647.505C661.314 160 672.5 148.805 672.5 135C672.5 121.193 661.307 110 647.5 110H614ZM778 205C778 213.837 770.837 221 762 221C753.163 221 746 213.837 746 205C746 196.163 753.163 189 762 189C770.837 189 778 196.163 778 205ZM790 205C790 220.464 777.464 233 762 233C746.536 233 734 220.464 734 205C734 189.536 746.536 177 762 177C777.464 177 790 189.536 790 205Z" fill="#FFD34C"/>
</g>
<g filter="url(#filter3_d_98_44)">
<rect x="12" y="226" width="714" height="13" rx="6.5" fill="#FFD34C"/>
</g>
<g filter="url(#filter4_d_98_44)">
<rect x="800" y="226" width="30" height="13" rx="6.5" fill="#FFD34C"/>
</g>
<defs>
<filter id="filter0_d_98_44" x="8.59998" y="68.2" width="573.558" height="151.6" filterUnits="userSpaceOnUse" color-interpolation-filters="sRGB">
<feFlood flood-opacity="0" result="BackgroundImageFix"/>
<feColorMatrix in="SourceAlpha" type="matrix" values="0 0 0 0 0 0 0 0 0 0 0 0 0 0 0 0 0 0 127 0" result="hardAlpha"/>
<feOffset dy="4"/>
<feGaussianBlur stdDeviation="2"/>
<feComposite in2="hardAlpha" operator="out"/>
<feColorMatrix type="matrix" values="0 0 0 0 0 0 0 0 0 0 0 0 0 0 0 0 0 0 0.25 0"/>
<feBlend mode="normal" in2="BackgroundImageFix" result="effect1_dropShadow_98_44"/>
<feBlend mode="normal" in="SourceGraphic" in2="effect1_dropShadow_98_44" result="shape"/>
</filter>
<filter id="filter1_d_98_44" x="9.68005" y="250.48" width="810.727" height="46.8801" filterUnits="userSpaceOnUse" color-interpolation-filters="sRGB">
<feFlood flood-opacity="0" result="BackgroundImageFix"/>
<feColorMatrix in="SourceAlpha" type="matrix" values="0 0 0 0 0 0 0 0 0 0 0 0 0 0 0 0 0 0 127 0" result="hardAlpha"/>
<feOffset dy="4"/>
<feGaussianBlur stdDeviation="2"/>
<feComposite in2="hardAlpha" operator="out"/>
<feColorMatrix type="matrix" values="0 0 0 0 0 0 0 0 0 0 0 0 0 0 0 0 0 0 0.25 0"/>
<feBlend mode="normal" in2="BackgroundImageFix" result="effect1_dropShadow_98_44"/>
<feBlend mode="normal" in="SourceGraphic" in2="effect1_dropShadow_98_44" result="shape"/>
</filter>
<filter id="filter2_d_98_44" x="604" y="81" width="230.397" height="160" filterUnits="userSpaceOnUse" color-interpolation-filters="sRGB">
<feFlood flood-opacity="0" result="BackgroundImageFix"/>
<feColorMatrix in="SourceAlpha" type="matrix" values="0 0 0 0 0 0 0 0 0 0 0 0 0 0 0 0 0 0 127 0" result="hardAlpha"/>
<feOffset dy="4"/>
<feGaussianBlur stdDeviation="2"/>
<feComposite in2="hardAlpha" operator="out"/>
<feColorMatrix type="matrix" values="0 0 0 0 0 0 0 0 0 0 0 0 0 0 0 0 0 0 0.25 0"/>
<feBlend mode="normal" in2="BackgroundImageFix" result="effect1_dropShadow_98_44"/>
<feBlend mode="normal" in="SourceGraphic" in2="effect1_dropShadow_98_44" result="shape"/>
</filter>
<filter id="filter3_d_98_44" x="8" y="226" width="722" height="21" filterUnits="userSpaceOnUse" color-interpolation-filters="sRGB">
<feFlood flood-opacity="0" result="BackgroundImageFix"/>
<feColorMatrix in="SourceAlpha" type="matrix" values="0 0 0 0 0 0 0 0 0 0 0 0 0 0 0 0 0 0 127 0" result="hardAlpha"/>
<feOffset dy="4"/>
<feGaussianBlur stdDeviation="2"/>
<feComposite in2="hardAlpha" operator="out"/>
<feColorMatrix type="matrix" values="0 0 0 0 0 0 0 0 0 0 0 0 0 0 0 0 0 0 0.25 0"/>
<feBlend mode="normal" in2="BackgroundImageFix" result="effect1_dropShadow_98_44"/>
<feBlend mode="normal" in="SourceGraphic" in2="effect1_dropShadow_98_44" result="shape"/>
</filter>
<filter id="filter4_d_98_44" x="796" y="226" width="38" height="21" filterUnits="userSpaceOnUse" color-interpolation-filters="sRGB">
<feFlood flood-opacity="0" result="BackgroundImageFix"/>
<feColorMatrix in="SourceAlpha" type="matrix" values="0 0 0 0 0 0 0 0 0 0 0 0 0 0 0 0 0 0 127 0" result="hardAlpha"/>
<feOffset dy="4"/>
<feGaussianBlur stdDeviation="2"/>
<feComposite in2="hardAlpha" operator="out"/>
<feColorMatrix type="matrix" values="0 0 0 0 0 0 0 0 0 0 0 0 0 0 0 0 0 0 0.25 0"/>
<feBlend mode="normal" in2="BackgroundImageFix" result="effect1_dropShadow_98_44"/>
<feBlend mode="normal" in="SourceGraphic" in2="effect1_dropShadow_98_44" result="shape"/>
</filter>
</defs>
</svg>
